<svg xmlns="http://www.w3.org/2000/svg" version="1.0" preserveAspectRatio="xMidYMid meet" viewBox="7.19 21.63 925.11 79.46">

<g transform="translate(0.000000,110.000000) scale(0.100000,-0.100000)" fill="#000000" stroke="none">
<path d="M310 880 c-180 -18 -248 -94 -237 -263 12 -189 108 -325 275 -387 46 -18 74 -21 148 -18 83 3 97 6 178 46 65 32 94 54 116 84 58 79 60 162 7 232 -38 49 -90 71 -165 71 -62 0 -65 -2 -103 -42 -70 -76 -47 -151 49 -161 29 -2 55 -9 58 -14 11 -18 -75 -87 -128 -103 -69 -20 -154 -19 -203 4 -90 41 -162 157 -171 277 -6 80 5 107 55 141 l34 23 926 0 c889 0 2020 12 2696 29 176 5 324 5 328 1 4 -4 -18 -25 -50 -48 -108 -76 -224 -217 -253 -306 -7 -21 -10 -65 -8 -97 5 -68 40 -128 98 -167 72 -49 206 -8 271 81 27 36 30 48 26 90 -7 81 -78 131 -152 107 -38 -12 -50 -29 -69 -93 -16 -56 -38 -68 -70 -38 -41 39 -43 79 -7 154 17 35 52 90 78 121 56 69 175 158 246 184 54 20 277 41 277 26 0 -4 -31 -39 -69 -78 -37 -39 -81 -96 -97 -126 -26 -49 -29 -65 -29 -145 0 -83 3 -95 33 -151 40 -73 106 -140 186 -188 108 -65 193 -46 318 72 46 44 78 85 99 128 29 59 31 69 27 141 -8 122 -37 184 -125 268 -40 39 -73 74 -73 78 0 5 53 6 118 2 97 -6 128 -12 179 -36 171 -76 346 -283 330 -386 -8 -46 -33 -83 -56 -83 -17 0 -41 37 -41 65 0 53 -73 103 -131 90 -69 -15 -112 -91 -89 -160 16 -47 98 -119 155 -135 55 -15 119 -8 154 18 42 31 84 123 84 185 0 107 -108 265 -254 373 -37 27 -65 53 -62 58 3 4 31 6 62 2 125 -13 1225 -28 2529 -34 l1384 -7 35 -38 c35 -38 35 -40 32 -116 -7 -137 -80 -249 -188 -286 -57 -19 -135 -19 -193 0 -50 18 -122 78 -116 97 3 7 26 16 52 20 61 9 86 31 86 77 0 109 -121 164 -236 106 -63 -32 -96 -80 -102 -149 -8 -93 39 -157 161 -222 72 -39 73 -39 187 -39 110 0 118 1 182 33 141 69 231 221 231 393 0 72 -3 93 -24 129 -13 25 -39 54 -57 67 -65 44 -113 47 -662 42 -757 -6 -8021 -3 -8115 3 -44 3 -114 2 -155 -2z m4425 -95 c45 -18 140 -108 171 -161 32 -55 47 -145 33 -198 -14 -50 -119 -162 -189 -200 l-49 -27 -40 20 c-65 34 -167 127 -190 174 -58 119 18 294 163 378 59 34 56 33 101 14z"/>
<path d="M993 520 c-30 -13 -39 -54 -19 -85 16 -25 17 -25 179 -25 711 2 2471 22 2505 29 52 10 60 17 41 36 -28 28 -224 34 -1204 40 -545 3 -1100 7 -1235 10 -145 3 -254 1 -267 -5z"/>
<path d="M7115 519 c-1193 -8 -1382 -14 -1416 -45 -11 -10 -17 -19 -14 -22 18 -18 241 -23 1405 -31 1437 -10 1340 -14 1340 50 0 39 -33 59 -95 57 -27 -1 -576 -5 -1220 -9z"/>
</g>
</svg>